<?xml version="1.0" encoding="UTF-8"?>
<!DOCTYPE svg PUBLIC "-//W3C//DTD SVG 1.1//EN" "http://www.w3.org/Graphics/SVG/1.1/DTD/svg11.dtd">
<!-- Creator: CorelDRAW 2020 (64-Bit) -->
<svg xmlns="http://www.w3.org/2000/svg" xml:space="preserve" width="80mm" height="80mm" version="1.1" style="shape-rendering:geometricPrecision; text-rendering:geometricPrecision; image-rendering:optimizeQuality; fill-rule:evenodd; clip-rule:evenodd"
viewBox="0 0 17900 8000"
 xmlns:xlink="http://www.w3.org/1999/xlink"
 xmlns:xodm="http://www.corel.com/coreldraw/odm/2003">
 <defs>
  <style type="text/css">
   <![CDATA[
    .fil0 {fill:white}
    .fil1 {fill:#14bf98}
   ]]>
  </style>
 </defs>
 <g id="Capa_x0020_1">
  <metadata id="CorelCorpID_0Corel-Layer"/>
  <path class="fil1" d="M3616.38 2766.48l57.34 218.11c61.98,223.84 152.4,393.21 275.49,585.25 -209.59,-144.58 -333.29,-550.63 -332.83,-803.36zm57.38 -837.79c0.02,-8.62 26.07,-66.09 37.3,-77.5 67.18,-68.27 192.48,-21.84 192.5,77.34 0.02,97.58 -120.1,158.56 -193.66,78.8 -15.03,-16.3 -36.16,-62.13 -36.14,-78.64zm1202.74 -48.22c-88.48,8.26 -146.58,10.7 -225.51,61.41 -44.52,28.61 -113.95,100.08 -142.08,144.83 -36.84,58.58 -65.03,152.54 -66.45,220.62 -2.89,139.44 7.33,90.34 -88.7,186.58 -317.74,318.41 -156.88,386.36 -112.61,451.17 84.34,123.46 86.79,209.68 86.79,360.8l-16.95 -63.38c-4.66,-20.18 -11.56,-43.74 -17.41,-62.94 -36.53,-120.19 -97.6,-218.23 -204.43,-289.06 -89.34,-59.24 -239.46,-290.92 -248.54,-401.04 45.06,-30.26 185.85,-11.8 335.41,-161.81 306.56,-307.45 185.47,-808.18 -242.81,-933.84 -471.5,-138.34 -939.55,432.79 -559.56,903.86 157.58,195.34 137.64,-41.21 138.9,400.49 0.92,321.58 113.45,787.78 353.37,1023.83 129.86,127.78 173.56,193.47 362.46,92.64 235.93,-125.92 430.1,-314.66 577.12,-536.15 335.39,-505.28 674,-1284.93 906.09,-1859.85 29.95,-74.15 86.7,-139.96 -3.68,-169.35 -119.26,-38.79 -146.17,-11.35 -255.15,-9.08 -273.58,5.68 -543.42,50.84 -769.09,57.24 -251.21,7.1 -185.85,24.15 -273.68,288.56 -65.53,197.31 -56.54,116.88 358.59,257.83l78.54 24.52c2.5,0.8 5.85,1.81 8.15,2.63 2.18,0.76 5.64,2.21 7.52,2.94l13.71 6.55z"/>
  <path class="fil1" d="M5441.17 103.9c-116.51,30.16 -209.35,59.38 -288.78,158.82 -137.03,171.53 -217.29,475.94 -47.18,659.16 256.41,276.14 730.59,11.7 770.66,-371.79 32.64,-312.32 -177.48,-512.76 -434.7,-446.19z"/>
  <path class="fil1" d="M3409.8 2410.71c-13.57,-36.25 0.62,-9.04 -36.64,-43.7 -167.47,-155.86 -236.96,-348.43 -184.26,-578.89 39.51,-172.8 144.64,-243.68 209.43,-327.49 -481.05,85.09 -554.66,814.68 11.47,950.08z"/>
  </g>
</svg>
