<?xml version="1.0" encoding="UTF-8"?>
<!DOCTYPE svg PUBLIC "-//W3C//DTD SVG 1.1//EN" "http://www.w3.org/Graphics/SVG/1.1/DTD/svg11.dtd">
<!-- Creator: CorelDRAW 2020 (64-Bit) -->
<svg xmlns="http://www.w3.org/2000/svg" xml:space="preserve" width="210mm" height="297mm" version="1.1" style="shape-rendering:geometricPrecision; text-rendering:geometricPrecision; image-rendering:optimizeQuality; fill-rule:evenodd; clip-rule:evenodd"
viewBox="0 0 21000 29700"
 xmlns:xlink="http://www.w3.org/1999/xlink"
 xmlns:xodm="http://www.corel.com/coreldraw/odm/2003">
 <defs>
  <style type="text/css">
   <![CDATA[
    .fil2 {fill:lime}
    .fil0 {fill:blue}
    .fil1 {fill:yellow}
   ]]>
  </style>
 </defs>
 <g id="Capa_x0020_1">
  <metadata id="CorelCorpID_0Corel-Layer"/>
  <path class="fil0" d="M13311.44 11795.71l-493.49 1216.52 731.43 -0.11 1017.54 -2499.95c-125.64,-1.84 -593.9,-16.98 -675.03,4.77 -63.85,17.12 -158.95,81.87 -204.77,128.07 -58.72,59.21 -122.08,110.11 -177.81,166.48 -79.11,80.01 -654.09,638.76 -702.84,662.88l-196.45 -710.21c-95.56,-328.41 -168.45,-253.83 -664.3,-253.83l-1012.59 2500.83 734.34 0.94c27.9,-39.19 477.54,-1138.86 496.3,-1216.39 68.94,108.62 143.23,757.42 232.35,801.41 88.18,43.52 153.12,-56.43 212.38,-115.68 108.57,-108.57 231.73,-245.01 344.38,-344.21l358.56 -341.52z"/>
  <path class="fil0" d="M7113.99 15580.44l214.42 -527.41c269.94,11.88 250.22,30.15 151.18,298.72 -67.97,184.36 -146.44,248.3 -365.6,228.69zm424.95 -1056.02l145.1 -355.2c202.14,7.9 272.15,8.44 183.05,215.78 -54.23,126.19 -194.77,152.4 -328.15,139.42zm-1390.33 1562.99c292.15,0.56 582.89,0.56 873.63,0.56 283.34,0 529.96,30.72 795.33,-88.37 339.79,-152.48 586.19,-627.75 518.28,-972.88 -12.24,-62.21 -57.9,-111.3 -66.34,-153.32 8.57,-12.18 184.03,-163.76 219.16,-199.63 179.62,-183.44 425.08,-665.24 206.66,-901.58 -188.59,-204.06 -416.52,-186.17 -674.62,-186.12 -290.74,0.04 -581.49,0 -872.22,0l-999.88 2501.34z"/>
  <path class="fil0" d="M10439.47 11758.47l-282.82 2.61c50.66,-113.66 98.87,-241.12 146.4,-357.09 42.37,-103.37 85.81,-267.37 210.69,-294.62 77.28,-16.87 157.2,3.5 141.28,94.58l-215.55 554.52zm-1546.53 1253.76l757.45 0 222.26 -560.65 294.19 -1.7 -214.67 560.35c158.37,15.65 400.95,2.5 570.09,1.64 196.71,-0.99 148.54,71.06 288.86,-284.97l496.72 -1224.77c48.37,-122.5 133.76,-291.76 157.88,-416 75.93,-391.11 -175.88,-559.63 -524.26,-604.44 -270.15,-34.74 -755.19,-12.21 -984.71,151.37 -207.87,148.14 -314.3,506.26 -408,739.66 -62.91,156.71 -627.55,1517.82 -655.81,1639.51z"/>
  <path class="fil0" d="M18209.15 14834.21l-282.81 2.6c50.65,-113.65 98.86,-241.11 146.39,-357.08 42.37,-103.38 85.81,-267.37 210.69,-294.63 242.56,-52.94 103.12,200.35 72.9,279.82 -47.55,125.06 -94.86,245.6 -147.17,369.29zm-1546.53 1253.76l757.46 0 222.25 -560.66 294.19 -1.69 -214.67 560.34c158.37,15.66 400.95,2.5 570.09,1.65 196.71,-0.99 148.55,71.06 288.86,-284.97 107.48,-272.71 222.05,-544.14 331.07,-816.59 61.59,-153.91 301.49,-710.66 323.53,-824.17 75.93,-391.12 -175.88,-559.65 -524.26,-604.45 -270.14,-34.74 -755.18,-12.22 -984.7,151.37 -207.88,148.15 -314.31,506.25 -408.01,739.66l-496.83 1224.66c-46.8,112.86 -133.02,303.04 -158.98,414.85z"/>
  <path class="fil0" d="M5584.85 14834.21l-282.81 2.6c50.65,-113.65 98.86,-241.11 146.39,-357.08 42.37,-103.38 85.81,-267.37 210.69,-294.63 242.56,-52.94 103.12,200.35 72.9,279.82 -47.55,125.06 -94.86,245.6 -147.17,369.29zm-1546.53 1253.76l757.46 0 222.25 -560.66 294.19 -1.69 -214.67 560.34c158.37,15.66 400.95,2.5 570.09,1.65 116.52,-0.59 167.94,38.36 207.42,-79.49 78.14,-233.26 310.29,-766.63 412.51,-1022.07 61.59,-153.91 301.49,-710.66 323.53,-824.17 75.93,-391.12 -175.88,-559.65 -524.26,-604.45 -270.14,-34.74 -755.18,-12.22 -984.71,151.37 -207.87,148.15 -314.3,506.25 -408,739.66l-496.83 1224.66c-46.8,112.86 -133.01,303.04 -158.98,414.85z"/>
  <path class="fil1" d="M9994.69 14297.62l-451.33 1132.44c-29.91,65.08 -56.44,118.06 -135.02,129.1 -263.32,37.01 -110.5,-193.53 10.76,-494.37l304.89 -750.97c26.66,-64.83 55.74,-124.19 132.95,-131.34 86.26,-7.99 175.09,6.92 137.75,115.14zm-206.58 -734.51c-713.73,100.36 -871.77,785.09 -1100.12,1355.88 -110.58,276.42 -316.58,667.34 -168.02,956.64 166.93,325.07 674.12,243.59 981.5,247.04 383.02,4.29 587.88,-134.85 757.35,-470.65 135.46,-268.43 256.07,-578.95 368.66,-859.33 114.11,-284.13 280.48,-676.84 104.04,-967.93 -182.34,-300.81 -637.54,-304.66 -943.41,-261.65z"/>
  <path class="fil0" d="M9650.39 10510.33l-757.45 0c-7.31,10.86 -1.94,0.92 -12.39,22.04 -2.21,4.47 -11.95,26.52 -14.11,31.8 -8.81,21.51 -17.49,44.77 -25.9,65.91l-572.25 1401.73c-33.32,83.35 -66.28,171.04 -102.87,252.9 -47.67,106.65 -130.02,130.7 -236.52,130.74 -90.49,-59.35 -32.22,-149.17 0,-229.53l467.25 -1196.87c61.2,-152.62 119.75,-332.75 186.92,-478.72l-745.98 0c-70.31,228.27 -211.2,522.24 -303.33,752.53 -99.3,248.26 -198.47,506.78 -304.45,751.4 -97.28,224.55 -274.93,585.96 -99.36,809.93 195.96,249.98 551.17,219.51 833.6,222.69 769.31,8.7 839.93,-436.56 1078.58,-1033.12 200.39,-500.9 401.74,-1005.2 608.26,-1503.43z"/>
  <path class="fil2" d="M5449.94 11956.38l57.34 218.11c61.98,223.84 152.4,393.21 275.49,585.25 -209.59,-144.58 -333.29,-550.63 -332.83,-803.36zm57.38 -837.79c0.02,-8.62 26.07,-66.09 37.3,-77.5 67.18,-68.27 192.48,-21.84 192.5,77.34 0.02,97.58 -120.1,158.56 -193.66,78.8 -15.03,-16.3 -36.16,-62.13 -36.14,-78.64zm1202.74 -48.22c-88.48,8.26 -146.58,10.7 -225.51,61.41 -44.52,28.61 -113.95,100.08 -142.08,144.83 -36.84,58.58 -65.03,152.54 -66.45,220.62 -2.89,139.44 7.33,90.34 -88.7,186.58 -317.74,318.41 -156.88,386.36 -112.61,451.17 84.34,123.46 86.79,209.68 86.79,360.8l-16.95 -63.38c-4.66,-20.18 -11.56,-43.74 -17.41,-62.94 -36.53,-120.19 -97.6,-218.23 -204.43,-289.06 -89.34,-59.24 -239.46,-290.92 -248.54,-401.04 45.06,-30.26 185.85,-11.8 335.41,-161.81 306.56,-307.45 185.47,-808.18 -242.81,-933.84 -471.5,-138.34 -939.55,432.79 -559.56,903.86 157.58,195.34 137.64,-41.21 138.9,400.49 0.92,321.58 113.45,787.78 353.37,1023.83 129.86,127.78 173.56,193.47 362.46,92.64 235.93,-125.92 430.1,-314.66 577.12,-536.15 335.39,-505.28 674,-1284.93 906.09,-1859.85 29.95,-74.15 86.7,-139.96 -3.68,-169.35 -119.26,-38.79 -146.17,-11.35 -255.15,-9.08 -273.58,5.68 -543.42,50.84 -769.09,57.24 -251.21,7.1 -185.85,24.15 -273.68,288.56 -65.53,197.31 -56.54,116.88 358.59,257.83l78.54 24.52c2.5,0.8 5.85,1.81 8.15,2.63 2.18,0.76 5.64,2.21 7.52,2.94l13.71 6.55z"/>
  <path class="fil1" d="M15102.98 11702.59c1.39,-35.27 214.86,-579.81 238.89,-619.36 290.12,9.27 245.61,46.41 133.81,340.38 -77.4,203.54 -115.35,291.26 -372.7,278.98zm-1301.95 1308.08l761.37 1.56c11.33,-47.62 263.32,-661.41 280.64,-683.38 79.37,-51.52 559.19,115.74 1006.46,-244.5 277.66,-223.62 338.67,-477.27 463.87,-787.09 67.38,-166.73 139.18,-309.75 89.61,-492.86 -106.15,-392.04 -623.07,-294.07 -968.36,-294.07 -210.41,0 -420.81,0 -631.22,0l-1002.37 2500.34z"/>
  <path class="fil0" d="M15398.87 14157.4l584.88 2.55 -776.24 1929.01 743.56 -0.99c26.68,-111.46 614.57,-1521.67 731.26,-1816.55 22.99,-58.11 28.42,-105.01 60.63,-111.52l594.81 -0.08 231.46 -573.78 -1939.51 0.03 -230.85 571.33z"/>
  <polygon class="fil0" points="10347.81,16086.89 11828.14,16087.91 12065.62,15516.24 11327.95,15514.08 12099.38,13587.86 11360.41,13586.07 "/>
  <polygon class="fil0" points="12069.3,16086.89 13549.64,16087.91 13787.12,15516.24 13049.45,15514.08 13820.87,13587.86 13081.91,13586.07 "/>
  <polygon class="fil0" points="2302.69,16086.89 3783.02,16087.91 4020.5,15516.24 3282.83,15514.08 4054.26,13587.86 3315.29,13586.07 "/>
  <polygon class="fil0" points="15865.97,13010.3 16605.24,13012.23 17617.8,10511.39 16884.7,10510.51 "/>
  <polygon class="fil0" points="13811.66,16086.04 14550.92,16087.97 15563.48,13587.13 14830.38,13586.25 "/>
  <path class="fil2" d="M7274.73 9293.8c-116.51,30.16 -209.35,59.38 -288.78,158.82 -137.03,171.53 -217.29,475.94 -47.18,659.16 256.41,276.14 730.59,11.7 770.66,-371.79 32.64,-312.32 -177.48,-512.76 -434.7,-446.19z"/>
  <path class="fil2" d="M5243.36 11600.61c-13.57,-36.25 0.62,-9.04 -36.64,-43.7 -167.47,-155.86 -236.96,-348.43 -184.26,-578.89 39.51,-172.8 144.64,-243.68 209.43,-327.49 -481.05,85.09 -554.66,814.68 11.47,950.08z"/>
  <path class="fil0" d="M14447.63 16914.29c0.21,-3.82 8.44,-21.95 9.36,-25.07 10.16,-34.44 8.42,-53.21 32.93,-81.84 79.16,-92.5 260.67,-74.27 257.2,95.16 -3.6,175.91 -235.5,218.11 -282.89,75.48 -1.54,-4.64 -16.83,-59.57 -16.6,-63.73zm114.77 -195.11c-99.77,30.45 -177.57,106.67 -158.76,226.56 17.18,109.53 121.2,183.33 230.51,155.63 197.62,-50.06 195.04,-286.27 87.59,-357.9 -67.73,-45.13 -106.56,-40.4 -159.34,-24.29z"/>
  <path class="fil0" d="M8422.39 16914.29c2.73,-49.55 45.66,-148.17 139.22,-160.28 99.03,-12.82 162.29,50.18 160.28,148.53 -3.6,175.91 -235.51,218.11 -282.9,75.48 -1.54,-4.64 -16.83,-59.57 -16.6,-63.73zm114.77 -195.11c-52.58,16.05 -85.65,21.45 -120.19,74.92 -110.81,171.55 30.76,348.11 191.94,307.27 197.62,-50.06 195.04,-286.27 87.59,-357.9 -67.72,-45.13 -106.56,-40.4 -159.34,-24.29z"/>
  <path class="fil0" d="M13187.16 17061.51c0.33,-28.81 41.9,-271.64 51.49,-300.35 222.66,-74.33 276.83,325.84 -51.49,300.35zm-59.1 33.67c156.18,15.21 296.02,7.36 332.67,-158.65 37.73,-170.85 -93.5,-234.95 -251.34,-227.58 -27.29,48.24 -30.21,123.22 -42.31,187.23 -6.54,34.6 -27.59,177.33 -39.02,199z"/>
  <path class="fil0" d="M14989 16958.22c-3.27,-41.16 14.18,-172.43 35.41,-201.66 173.45,-20.26 182.62,218.59 -35.41,201.66zm-80.57 138.45c84.73,2.35 40.79,-20.15 63.65,-82.57l80.3 -14.87c52.27,63.94 18.92,104.48 106.55,95.95l-53.96 -104.89c165.06,-119.59 123.26,-293.09 -128.18,-281.34l-68.36 387.72z"/>
  <path class="fil0" d="M7104.54 16958.22c-3.26,-41.16 14.19,-172.43 35.42,-201.66 173.46,-20.26 182.62,218.59 -35.42,201.66zm-80.56 138.45c84.73,2.35 40.79,-20.15 63.64,-82.57l80.31 -14.87c52.27,63.94 18.91,104.48 106.55,95.95l-53.96 -104.89c165.06,-119.59 123.25,-293.09 -128.17,-281.34 -3.61,54.71 -24.81,139.4 -34.02,195.52 -10.64,64.88 -23.8,130.8 -34.35,192.2z"/>
  <path class="fil0" d="M5717.34 17095.72c73.46,5.79 53.52,-38.06 65.45,-112.55 9.31,-58.18 18.66,-112.29 26.56,-171.84 31.77,47.23 174.31,278.07 201.39,296.9 11.03,-69.59 81.39,-363.52 59.01,-402.51 -74.08,26.6 -42.13,189.52 -88.05,287.12l-187.67 -286.74 -76.69 389.62z"/>
  <path class="fil0" d="M8884.89 17095.72c73.46,5.79 53.52,-38.06 65.45,-112.55 9.31,-58.18 18.66,-112.29 26.57,-171.84 31.76,47.23 174.3,278.07 201.39,296.9 11.02,-69.59 81.38,-363.52 59,-402.51 -74.07,26.6 -42.13,189.52 -88.05,287.12l-187.67 -286.74 -76.69 389.62z"/>
  <path class="fil0" d="M10640.82 17095.72c73.45,5.79 53.51,-38.06 65.45,-112.55 9.31,-58.18 18.65,-112.29 26.56,-171.84 31.77,47.23 174.31,278.07 201.39,296.9 11.02,-69.59 81.39,-363.52 59,-402.51 -74.07,26.6 -42.12,189.52 -88.04,287.12l-187.67 -286.74 -76.69 389.62z"/>
  <path class="fil0" d="M6207.4 16983.14c0,134.17 175.94,162.52 243.68,71.53 20.49,-27.53 90.98,-308.41 63.24,-344.01 -51.8,-0.31 -44.38,48.44 -65.98,180.6 -10.35,63.3 -9.2,162.59 -93.04,172.46 -178.53,21.01 -63.79,-214.86 -59.26,-315.84 2.66,-59.19 11.06,-27.18 -19.78,-40.17 -28.05,12.22 -18.02,-9.23 -32.71,47.71 -4.32,16.74 -10.29,60.05 -13.28,78.44 -6.72,41.39 -22.87,109.81 -22.87,149.28z"/>
  <path class="fil0" d="M13587.86 17094.96l206.81 4.31c70.27,-7.53 30.16,10.77 45.68,-25.29 -46.07,-25.42 -136.09,-7.96 -194.12,-12.47l12.59 -87.68c115.25,-9.97 149.14,22.36 169.07,-25.11 -20.21,-48.15 -31.79,-15.08 -158.71,-24.92l26.75 -162.93c121.57,-37.8 187.27,49.63 189.34,-53.16l-216.09 0.36c-28.43,46.3 -32.27,131.12 -43.03,188.1 -6.88,36.34 -26.7,174.55 -38.29,198.79z"/>
  <path class="fil0" d="M14059.39 16958.22c-3.3,-43.01 19.27,-160.84 34.43,-202.64 84.53,-6.72 132.69,20.55 125.33,112.21 -7.93,98.82 -78.53,96.74 -159.76,90.43zm-82.06 136.96l46.66 3.73c13.58,-24.58 11.65,-54.42 23.19,-91.57 62.29,-2.91 204.09,12.47 224.56,-143.43 16.31,-124.26 -107.63,-159.83 -213.08,-154.96 -20.96,37.42 -33.41,133.82 -42.23,187.3 -5.54,33.61 -27.3,176.57 -39.1,198.93z"/>
  <path class="fil0" d="M16488.29 16819.24l47.13 173.18 -146.27 2.06 99.14 -175.24zm-204.4 278.67c97.92,-1.88 24.62,-31.9 91.81,-57.38l149.19 0c60.55,25.31 -8.81,60.26 78.38,55.42l-87.63 -386.51c-34.81,21.63 -200.28,326.35 -231.75,388.47z"/>
  <path class="fil0" d="M12012.4 16819.24l47.13 173.18 -146.27 2.06 99.14 -175.24zm-204.4 278.67c97.92,-1.88 24.62,-31.9 91.81,-57.38l149.2 0c60.54,25.31 -8.81,60.26 78.37,55.42l-87.63 -386.51c-34.81,21.63 -200.28,326.35 -231.75,388.47z"/>
  <path class="fil0" d="M11701.96 17031.93l-35.1 -22.75c-16.6,9.6 -77.84,88.47 -179.09,41.86 -59.17,-27.23 -87.43,-103.21 -75.92,-164.73 19.63,-104.86 134.44,-170.25 228.56,-113.74 52.64,31.61 24.28,44.68 73.79,23.31 -27.57,-130.23 -321.35,-128.98 -351.84,98.48 -28.76,214.58 254.76,279.85 339.6,137.57z"/>
  <path class="fil0" d="M8006.49 17031.93l-35.11 -22.75c-35.59,20.58 -23.78,33.46 -71.99,48.26 -35.81,10.99 -74.27,8.71 -107.09,-6.4 -59.18,-27.23 -87.44,-103.21 -75.93,-164.73 10.89,-58.17 56.64,-117.37 123.68,-130.68 128.72,-25.55 105.5,71.83 178.68,40.25 -27.58,-130.23 -321.35,-128.98 -351.84,98.48 -28.77,214.58 254.75,279.85 339.6,137.57z"/>
  <path class="fil0" d="M9911.61 17031.93l-35.11 -22.75c-16.59,9.6 -77.84,88.47 -179.09,41.86 -175.69,-80.87 -28.34,-387.13 152.64,-278.47 52.64,31.61 24.29,44.68 73.8,23.31 -27.58,-130.23 -321.35,-128.98 -351.84,98.48 -28.77,214.58 254.75,279.85 339.6,137.57z"/>
  <path class="fil0" d="M16042.88 17099.88c35.45,-27.95 220.35,-347.28 227.57,-390.21 -84.22,-4.92 -124.81,175.74 -213.15,295.44 -6.54,-59.23 -21.36,-105.91 -35.18,-161.88 -15.78,-63.88 -4.7,-129.69 -71.05,-135.52 0.05,58.46 67.98,350.79 91.81,392.17z"/>
  <path class="fil0" d="M12599.89 17097.91c48.2,-5.29 22.93,9.83 39.7,-29.15 21.07,-48.99 -15.3,-53.84 71.82,-169.2 31.39,-41.56 119.6,-150.07 127.8,-191.04 -78.95,-0.82 -124.85,124.61 -202.71,228.28 -9.26,-54.47 -52.52,-213.96 -106.85,-230.03 -28.66,58.75 79.83,219.75 76.14,284.66 -1.52,26.78 -16.4,51.87 -13.39,82.9 2.5,25.7 -1.94,8.7 7.49,23.58z"/>
  <path class="fil0" d="M15330.34 16743.12c33.29,18.36 70.07,8.55 114.77,13.44l-63.14 339.07c74.7,7.87 42.94,11.23 74.6,-147.91 11.56,-58.06 18.33,-139.56 37.4,-192.14 81.94,-6.36 111.3,26.57 112.8,-47.87 -120.06,0 -264.03,-23.37 -276.43,35.41z"/>
  <path class="fil0" d="M6665.49 16743.12c33.28,18.36 70.06,8.55 114.76,13.44l-63.14 339.07c61.09,6.44 48.78,7.43 58.85,-48.83 13.04,-72.83 33.62,-237.39 53.15,-291.22 81.94,-6.36 111.3,26.57 112.79,-47.87 -49.71,0 -99.58,0.39 -149.29,-0.11 -56.37,-0.57 -115.69,-18.7 -127.12,35.52z"/>
  <path class="fil0" d="M10041.58 17094.96l228.55 3.12c-7.47,-66.32 -11.01,-24.21 -170.18,-36.57 1.18,-102.78 55.32,-242.94 55.42,-353.8 -50.09,5.3 -49.3,24.07 -56.52,69.69l-57.27 317.56z"/>
  <path class="fil0" d="M11130.88 17097.91l45.9 0c0.11,-121.53 57.63,-262.11 57.39,-390.2 -57.05,6.04 -44.6,12.12 -70.45,170.55 -10.95,67.11 -32.97,150.63 -32.84,219.65z"/>
  <path class="fil0" d="M8146.96 17097.91l45.9 0c0.1,-121.53 57.62,-262.11 57.38,-390.2 -57.05,6.04 -44.59,12.12 -70.45,170.55 -10.95,67.11 -32.96,150.63 -32.83,219.65z"/>
  <path class="fil0" d="M15687.11 17097.91l45.9 0c0.11,-121.53 57.62,-262.11 57.38,-390.2 -57.05,6.04 -44.59,12.12 -70.45,170.55 -10.95,67.11 -32.96,150.63 -32.83,219.65z"/>
  <path class="fil0" d="M10430.8 17097.91l45.91 0c0.11,-121.53 57.62,-262.11 57.38,-390.2 -55.78,5.9 -41.99,10.65 -51.33,63.4 -14.31,80.74 -52.07,264.33 -51.96,326.8z"/>
  <path class="fil0" d="M7435.4 17097.91l45.91 0c0.11,-121.53 57.62,-262.11 57.38,-390.2 -55.79,5.9 -41.99,10.65 -51.34,63.4 -14.3,80.74 -52.06,264.33 -51.95,326.8z"/>
  <path class="fil2" d="M5587.66 11061.21c-86.79,56.08 -2.16,169.63 75.32,122.32 79.89,-48.78 9.7,-177.27 -75.32,-122.32z"/>
  <path class="fil0" d="M10501.63 16682.79c49.49,-0.52 78.12,-67.73 100.34,-109.85 -55.19,-6.1 -44.93,-15.32 -68.69,30.65 -13.97,27.02 -27.19,52.63 -31.65,79.2z"/>
  <path class="fil0" d="M8580.69 16680.72c44.09,0.69 32.57,1.15 59.91,-41.71 14.38,-22.55 29.35,-44.48 44.77,-66.07l-54.4 -2.81 -50.28 110.59z"/>
 </g>
</svg>
