<?xml version="1.0" encoding="UTF-8"?>
<!DOCTYPE svg PUBLIC "-//W3C//DTD SVG 1.1//EN" "http://www.w3.org/Graphics/SVG/1.1/DTD/svg11.dtd">
<!-- Creator: CorelDRAW 2020 (64-Bit) -->
<svg xmlns="http://www.w3.org/2000/svg" xmlns:xlink="http://www.w3.org/1999/xlink" xmlns:xodm="http://www.corel.com/coreldraw/odm/2003" xml:space="preserve" width="179mm" height="80mm" version="1.1" style="shape-rendering:geometricPrecision;text-rendering:geometricPrecision;image-rendering:optimizeQuality;fill-rule:evenodd;clip-rule:evenodd" viewBox="0 0 17900 8000">
 <defs>
  <style type="text/css">
   <![CDATA[
    .fil0 {fill:white}
    .fil1 {fill:#82c496}
   ]]>
  </style>
 </defs>
 <g id="Capa_x0020_1">
  <metadata id="CorelCorpID_0Corel-Layer"/>
  <path class="fil0" d="M11477.88 2605.81l-493.49 1216.52 731.43 -0.11 1017.54 -2499.95c-125.64,-1.84 -593.9,-16.98 -675.03,4.77 -63.85,17.12 -158.95,81.87 -204.77,128.07 -58.72,59.21 -122.08,110.11 -177.81,166.48 -79.11,80.01 -654.09,638.76 -702.84,662.88l-196.45 -710.21c-95.56,-328.41 -168.45,-253.83 -664.3,-253.83l-1012.59 2500.83 734.34 0.94c27.9,-39.19 477.54,-1138.86 496.3,-1216.39 68.94,108.62 143.23,757.42 232.35,801.41 88.18,43.52 153.12,-56.43 212.38,-115.68 108.57,-108.57 231.73,-245.01 344.38,-344.21l358.56 -341.52z"/>
  <path class="fil0" d="M5280.43 6390.54l214.42 -527.41c269.94,11.88 250.22,30.15 151.18,298.72 -67.97,184.36 -146.44,248.3 -365.6,228.69zm424.95 -1056.02l145.1 -355.2c202.14,7.9 272.15,8.44 183.05,215.78 -54.23,126.19 -194.77,152.4 -328.15,139.42zm-1390.33 1562.99c292.15,0.56 582.89,0.56 873.63,0.56 283.34,0 529.96,30.72 795.33,-88.37 339.79,-152.48 586.19,-627.75 518.28,-972.88 -12.24,-62.21 -57.9,-111.3 -66.34,-153.32 8.57,-12.18 184.03,-163.76 219.16,-199.63 179.62,-183.44 425.08,-665.24 206.66,-901.58 -188.59,-204.06 -416.52,-186.17 -674.62,-186.12 -290.74,0.04 -581.49,0 -872.22,0l-999.88 2501.34z"/>
  <path class="fil0" d="M8605.91 2568.57l-282.82 2.61c50.66,-113.66 98.87,-241.12 146.4,-357.09 42.37,-103.37 85.81,-267.37 210.69,-294.62 77.28,-16.87 157.2,3.5 141.28,94.58l-215.55 554.52zm-1546.53 1253.76l757.45 0 222.26 -560.65 294.19 -1.7 -214.67 560.35c158.37,15.65 400.95,2.5 570.09,1.64 196.71,-0.99 148.54,71.06 288.86,-284.97l496.72 -1224.77c48.37,-122.5 133.76,-291.76 157.88,-416 75.93,-391.11 -175.88,-559.63 -524.26,-604.44 -270.15,-34.74 -755.19,-12.21 -984.71,151.37 -207.87,148.14 -314.3,506.26 -408,739.66 -62.91,156.71 -627.55,1517.82 -655.81,1639.51z"/>
  <path class="fil0" d="M16375.59 5644.31l-282.81 2.6c50.65,-113.65 98.86,-241.11 146.39,-357.08 42.37,-103.38 85.81,-267.37 210.69,-294.63 242.56,-52.94 103.12,200.35 72.9,279.82 -47.55,125.06 -94.86,245.6 -147.17,369.29zm-1546.53 1253.76l757.46 0 222.25 -560.66 294.19 -1.69 -214.67 560.34c158.37,15.66 400.95,2.5 570.09,1.65 196.71,-0.99 148.55,71.06 288.86,-284.97 107.48,-272.71 222.05,-544.14 331.07,-816.59 61.59,-153.91 301.49,-710.66 323.53,-824.17 75.93,-391.12 -175.88,-559.65 -524.26,-604.45 -270.14,-34.74 -755.18,-12.22 -984.7,151.37 -207.88,148.15 -314.31,506.25 -408.01,739.66l-496.83 1224.66c-46.8,112.86 -133.02,303.04 -158.98,414.85z"/>
  <path class="fil0" d="M3751.29 5644.31l-282.81 2.6c50.65,-113.65 98.86,-241.11 146.39,-357.08 42.37,-103.38 85.81,-267.37 210.69,-294.63 242.56,-52.94 103.12,200.35 72.9,279.82 -47.55,125.06 -94.86,245.6 -147.17,369.29zm-1546.53 1253.76l757.46 0 222.25 -560.66 294.19 -1.69 -214.67 560.34c158.37,15.66 400.95,2.5 570.09,1.65 116.52,-0.59 167.94,38.36 207.42,-79.49 78.14,-233.26 310.29,-766.63 412.51,-1022.07 61.59,-153.91 301.49,-710.66 323.53,-824.17 75.93,-391.12 -175.88,-559.65 -524.26,-604.45 -270.14,-34.74 -755.18,-12.22 -984.71,151.37 -207.87,148.15 -314.3,506.25 -408,739.66l-496.83 1224.66c-46.8,112.86 -133.01,303.04 -158.98,414.85z"/>
  <path class="fil0" d="M8161.13 5107.72l-451.33 1132.44c-29.91,65.08 -56.44,118.06 -135.02,129.1 -263.32,37.01 -110.5,-193.53 10.76,-494.37l304.89 -750.97c26.66,-64.83 55.74,-124.19 132.95,-131.34 86.26,-7.99 175.09,6.92 137.75,115.14zm-206.58 -734.51c-713.73,100.36 -871.77,785.09 -1100.12,1355.88 -110.58,276.42 -316.58,667.34 -168.02,956.64 166.93,325.07 674.12,243.59 981.5,247.04 383.02,4.29 587.88,-134.85 757.35,-470.65 135.46,-268.43 256.07,-578.95 368.66,-859.33 114.11,-284.13 280.48,-676.84 104.04,-967.93 -182.34,-300.81 -637.54,-304.66 -943.41,-261.65z"/>
  <path class="fil0" d="M7816.83 1320.43l-757.45 0c-7.31,10.86 -1.94,0.92 -12.39,22.04 -2.21,4.47 -11.95,26.52 -14.11,31.8 -8.81,21.51 -17.49,44.77 -25.9,65.91l-572.25 1401.73c-33.32,83.35 -66.28,171.04 -102.87,252.9 -47.67,106.65 -130.02,130.7 -236.52,130.74 -90.49,-59.35 -32.22,-149.17 0,-229.53l467.25 -1196.87c61.2,-152.62 119.75,-332.75 186.92,-478.72l-745.98 0c-70.31,228.27 -211.2,522.24 -303.33,752.53 -99.3,248.26 -198.47,506.78 -304.45,751.4 -97.28,224.55 -274.93,585.96 -99.36,809.93 195.96,249.98 551.17,219.51 833.6,222.69 769.31,8.7 839.93,-436.56 1078.58,-1033.12 200.39,-500.9 401.74,-1005.2 608.26,-1503.43z"/>
  <path class="fil1" d="M3616.38 2766.48l57.34 218.11c61.98,223.84 152.4,393.21 275.49,585.25 -209.59,-144.58 -333.29,-550.63 -332.83,-803.36zm57.38 -837.79c0.02,-8.62 26.07,-66.09 37.3,-77.5 67.18,-68.27 192.48,-21.84 192.5,77.34 0.02,97.58 -120.1,158.56 -193.66,78.8 -15.03,-16.3 -36.16,-62.13 -36.14,-78.64zm1202.74 -48.22c-88.48,8.26 -146.58,10.7 -225.51,61.41 -44.52,28.61 -113.95,100.08 -142.08,144.83 -36.84,58.58 -65.03,152.54 -66.45,220.62 -2.89,139.44 7.33,90.34 -88.7,186.58 -317.74,318.41 -156.88,386.36 -112.61,451.17 84.34,123.46 86.79,209.68 86.79,360.8l-16.95 -63.38c-4.66,-20.18 -11.56,-43.74 -17.41,-62.94 -36.53,-120.19 -97.6,-218.23 -204.43,-289.06 -89.34,-59.24 -239.46,-290.92 -248.54,-401.04 45.06,-30.26 185.85,-11.8 335.41,-161.81 306.56,-307.45 185.47,-808.18 -242.81,-933.84 -471.5,-138.34 -939.55,432.79 -559.56,903.86 157.58,195.34 137.64,-41.21 138.9,400.49 0.92,321.58 113.45,787.78 353.37,1023.83 129.86,127.78 173.56,193.47 362.46,92.64 235.93,-125.92 430.1,-314.66 577.12,-536.15 335.39,-505.28 674,-1284.93 906.09,-1859.85 29.95,-74.15 86.7,-139.96 -3.68,-169.35 -119.26,-38.79 -146.17,-11.35 -255.15,-9.08 -273.58,5.68 -543.42,50.84 -769.09,57.24 -251.21,7.1 -185.85,24.15 -273.68,288.56 -65.53,197.31 -56.54,116.88 358.59,257.83l78.54 24.52c2.5,0.8 5.85,1.81 8.15,2.63 2.18,0.76 5.64,2.21 7.52,2.94l13.71 6.55z"/>
  <path class="fil0" d="M13269.42 2512.69c1.39,-35.27 214.86,-579.81 238.89,-619.36 290.12,9.27 245.61,46.41 133.81,340.38 -77.4,203.54 -115.35,291.26 -372.7,278.98zm-1301.95 1308.08l761.37 1.56c11.33,-47.62 263.32,-661.41 280.64,-683.38 79.37,-51.52 559.19,115.74 1006.46,-244.5 277.66,-223.62 338.67,-477.27 463.87,-787.09 67.38,-166.73 139.18,-309.75 89.61,-492.86 -106.15,-392.04 -623.07,-294.07 -968.36,-294.07 -210.41,0 -420.81,0 -631.22,0l-1002.37 2500.34z"/>
  <path class="fil0" d="M13565.31 4967.5l584.88 2.55 -776.24 1929.01 743.56 -0.99c26.68,-111.46 614.57,-1521.67 731.26,-1816.55 22.99,-58.11 28.42,-105.01 60.63,-111.52l594.81 -0.08 231.46 -573.78 -1939.51 0.03 -230.85 571.33z"/>
  <polygon class="fil0" points="8514.25,6896.99 9994.58,6898.01 10232.06,6326.34 9494.39,6324.18 10265.82,4397.96 9526.85,4396.17 "/>
  <polygon class="fil0" points="10235.74,6896.99 11716.08,6898.01 11953.56,6326.34 11215.89,6324.18 11987.31,4397.96 11248.35,4396.17 "/>
  <polygon class="fil0" points="469.13,6896.99 1949.46,6898.01 2186.94,6326.34 1449.27,6324.18 2220.7,4397.96 1481.73,4396.17 "/>
  <polygon class="fil0" points="14032.41,3820.4 14771.68,3822.33 15784.24,1321.49 15051.14,1320.61 "/>
  <polygon class="fil0" points="11978.1,6896.14 12717.36,6898.07 13729.92,4397.23 12996.82,4396.35 "/>
  <path class="fil1" d="M5441.17 103.9c-116.51,30.16 -209.35,59.38 -288.78,158.82 -137.03,171.53 -217.29,475.94 -47.18,659.16 256.41,276.14 730.59,11.7 770.66,-371.79 32.64,-312.32 -177.48,-512.76 -434.7,-446.19z"/>
  <path class="fil1" d="M3409.8 2410.71c-13.57,-36.25 0.62,-9.04 -36.64,-43.7 -167.47,-155.86 -236.96,-348.43 -184.26,-578.89 39.51,-172.8 144.64,-243.68 209.43,-327.49 -481.05,85.09 -554.66,814.68 11.47,950.08z"/>
  <path class="fil0" d="M3754.1 1871.31c-86.79,56.08 -2.16,169.63 75.32,122.32 79.89,-48.78 9.7,-177.27 -75.32,-122.32z"/>
  
  
 </g>
</svg>